<svg width="18" height="11" viewBox="0 0 18 11" fill="none" xmlns="http://www.w3.org/2000/svg">
<path fill-rule="evenodd" clip-rule="evenodd" d="M1.37264 2.75195C0.992139 2.40441 0.604683 2.16464 0.210276 2.03264C0.16235 1.94964 0.144164 1.87021 0.155715 1.79437C0.15689 1.72451 0.174432 1.65905 0.20834 1.59797L0.260965 1.40157C0.268131 1.34209 0.253742 1.28122 0.217798 1.21896C0.181854 1.15671 0.133342 1.10863 0.07226 1.07472C0.00518807 1.03043 -0.0151916 0.959191 0.011121 0.86099C0.100865 0.656993 0.242921 0.519639 0.437287 0.448926C0.631652 0.378213 0.832223 0.366174 1.039 0.41281C1.24578 0.459445 1.4372 0.563363 1.61328 0.724565C1.78936 0.885767 1.89062 1.09709 1.91704 1.35852C2.52476 2.00376 3.15382 2.60209 3.80422 3.15352L5.75542 4.80778C6.39544 5.3652 7.01851 5.95315 7.62463 6.57165C8.1242 7.07787 8.5993 7.64136 9.04995 8.26211C9.43704 7.75277 9.84159 7.28429 10.2636 6.85666C10.8697 6.23817 11.4928 5.65021 12.1328 5.0928L14.084 3.43853C14.7344 2.88711 15.3635 2.28878 15.9712 1.64354C15.9976 1.3821 16.0989 1.17078 16.2749 1.00958C16.451 0.848379 16.6424 0.74446 16.8492 0.697825C17.056 0.65119 17.2566 0.663229 17.4509 0.733942C17.6453 0.804655 17.7873 0.942009 17.8771 1.14601C17.9034 1.24421 17.883 1.31545 17.816 1.35973C17.7549 1.39364 17.7064 1.44172 17.6704 1.50398C17.6345 1.56624 17.6201 1.6271 17.6272 1.68658L17.6799 1.88298C17.7138 1.94406 17.7313 2.00953 17.7325 2.07938C17.744 2.15522 17.7259 2.23465 17.6779 2.31766C17.2835 2.44965 16.8961 2.68942 16.5156 3.03696C16.1514 3.38012 15.7783 3.73884 15.3962 4.11312C15.0305 4.48302 14.6507 4.81719 14.2571 5.11563C13.8798 5.40969 13.4808 5.57361 13.0601 5.60741C13.0233 5.86285 12.9422 6.05123 12.8168 6.17253C12.7018 6.29982 12.569 6.40995 12.4185 6.5029C12.2784 6.60185 12.1375 6.71417 11.9957 6.83985C11.8704 6.96116 11.7819 7.13835 11.7303 7.37144C11.4129 7.56174 11.1414 7.79236 10.9158 8.06332C10.6962 8.32389 10.4943 8.60164 10.3102 8.89655L9.81601 9.75258C9.65426 10.0327 9.47336 10.2742 9.27332 10.4769C9.17716 10.3798 9.09276 10.3104 9.02013 10.2684C8.96386 10.2221 8.9038 10.1944 8.83994 10.1852C8.79244 10.1716 8.73895 10.1684 8.67948 10.1755L8.634 10.1728C8.62768 10.179 8.62131 10.1854 8.61489 10.1919C8.60787 10.1847 8.60088 10.1776 8.59391 10.1704L8.47891 10.1635C8.49368 10.1379 8.50666 10.113 8.51784 10.0888C8.35592 9.90877 8.20738 9.70169 8.07221 9.46757L7.57798 8.61154C7.39388 8.31662 7.19201 8.03888 6.97239 7.7783C6.74679 7.50735 6.47529 7.27672 6.1579 7.08643C6.10633 6.85334 6.01786 6.67614 5.89249 6.55484C5.75075 6.42915 5.60981 6.31683 5.46968 6.21789C5.31917 6.12493 5.18641 6.01481 5.07141 5.88752C4.94604 5.76621 4.86495 5.57784 4.82815 5.32239C4.40743 5.2886 4.00842 5.12467 3.63113 4.83062C3.23747 4.53218 2.85776 4.19801 2.49202 3.82811C2.10991 3.45382 1.73678 3.0951 1.37264 2.75195Z" fill="black"/>
</svg>
