<svg width="39" height="35" viewBox="0 0 39 35" fill="none" xmlns="http://www.w3.org/2000/svg">
<path fill-rule="evenodd" clip-rule="evenodd" d="M38.0047 2.67668C38.6546 2.16286 38.7648 1.21954 38.251 0.569707C37.7372 -0.0801238 36.7939 -0.190383 36.144 0.323437C29.4453 5.6201 23.1432 11.2266 17.047 17.0523C11.9133 13.5407 7.19811 9.4625 2.55361 4.87912C1.96396 4.29722 1.01423 4.30351 0.432339 4.89316C-0.149555 5.48282 -0.143266 6.43254 0.446387 7.01444C5.03156 11.5393 9.72465 15.6211 14.8428 19.1765C12.4293 21.5215 10.0449 23.8997 7.6775 26.3052C7.10381 26.8882 6.47466 27.7253 5.8986 28.4918L5.89858 28.4918C5.69042 28.7688 5.48919 29.0366 5.30002 29.2798C4.47575 30.3394 3.82046 31.0256 3.2996 31.286C2.55863 31.6565 2.2583 32.5575 2.62878 33.2985C2.99926 34.0395 3.90027 34.3398 4.64124 33.9693C5.8549 33.3625 6.88776 32.1247 7.66798 31.1217C7.9473 30.7626 8.20163 30.4241 8.43824 30.1092C8.95706 29.4186 9.39068 28.8414 9.81573 28.4095C12.3215 25.8633 14.8427 23.3519 17.394 20.8813C20.2111 22.6899 23.1648 24.344 26.3035 25.8307C26.6627 26.0009 27.1073 26.3183 27.6702 26.7902C28.0015 27.0679 28.2949 27.3291 28.6075 27.6073L28.6075 27.6074C28.8634 27.8352 29.1321 28.0744 29.4449 28.3434C30.0693 28.8804 30.7696 29.4441 31.5086 29.8752C32.2429 30.3035 33.1286 30.669 34.1099 30.669C34.9383 30.669 35.6099 29.9974 35.6099 29.169C35.6099 28.3405 34.9383 27.669 34.1099 27.669C33.8704 27.669 33.5205 27.5757 33.0203 27.2839C32.5249 26.995 31.9922 26.5773 31.401 26.0688C31.1839 25.8821 30.9319 25.6586 30.6712 25.4274C30.3067 25.1041 29.925 24.7656 29.5974 24.491C28.9958 23.9868 28.3095 23.4614 27.5877 23.1195C24.7973 21.7977 22.1547 20.3365 19.6216 18.7425C25.5087 13.1389 31.577 7.75911 38.0047 2.67668Z" fill="#1C1C1C"/>
</svg>
