<svg width="475" height="22" viewBox="0 0 475 22" fill="none" xmlns="http://www.w3.org/2000/svg">
<path d="M1.65186 19.9265C60.0317 18.6292 118.317 15.8042 176.776 15.8042C212.857 15.8042 248.944 15.6247 285.026 15.8042C329.476 16.0253 376.531 23.8454 420.758 15.8042C435.429 13.1367 450.915 13.0559 465.798 13.0559C494.095 13.0559 409.195 12.5837 380.908 13.3613C315.995 15.1458 250.728 17.1783 185.784 17.1783C148.94 17.1783 112.106 18.5524 75.2435 18.5524C64.397 18.5524 53.7051 17.9494 42.8754 17.4836C33.5731 17.0835 21.1661 19.4843 12.1868 16.4912C7.63233 14.9731 18.043 14.6228 19.21 14.43C44.2609 10.2932 69.7476 9.25129 95.0919 9.00992C135.8 8.62222 176.525 8.93358 217.236 8.93358C251.175 8.93358 284.856 6.37912 318.768 6.18534C348.952 6.01286 379.105 2.06299 409.23 2.06299C420.492 2.06299 433.808 5.37415 444.881 3.36077C446.712 3.02796 459.093 1.46517 453.584 2.36835C436.852 5.11135 420.486 8.22411 403.505 9.69698C373.517 12.2979 343.457 11.04 313.424 12.3689C285.654 13.5976 258.026 15.8042 230.213 15.8042C208.13 15.8042 185.703 14.7926 163.645 16.1095C125.158 18.4073 86.3893 17.1783 47.8375 17.1783C40.1708 17.1783 22.864 20.5143 22.2636 10.3077C22.122 7.9007 18.0949 6.18534 16.0801 6.18534C15.2025 6.18534 9.52389 6.26537 12.6448 6.18534C29.3813 5.7562 45.7568 4.98018 62.5711 5.57462C115.675 7.45205 167.813 9.87385 221.053 7.86482C283.383 5.51274 345.204 13.0559 407.398 13.0559C427.903 13.0559 489.357 15.8042 468.852 15.8042" stroke="#EBCB78" stroke-opacity="0.8" stroke-width="3" stroke-linecap="round"/>
</svg>
