<svg width="341" height="3" viewBox="0 0 341 3" fill="none" xmlns="http://www.w3.org/2000/svg">
<path d="M15.064 1.656C15.064 1.752 15.016 1.84 14.92 1.92C14.824 1.984 14.776 2.088 14.776 2.232C14.392 2.392 13.96 2.496 13.48 2.544C13.016 2.576 12.528 2.592 12.016 2.592C11.52 2.576 11.008 2.552 10.48 2.52C9.968 2.488 9.488 2.472 9.04 2.472C8.544 2.472 8.024 2.48 7.48 2.496C6.936 2.496 6.4 2.504 5.872 2.52C5.344 2.52 4.84 2.528 4.36 2.544C3.896 2.544 3.496 2.544 3.16 2.544C2.552 2.544 2.056 2.424 1.672 2.184C1.304 1.944 1.048 1.696 0.904 1.44C1.048 1.472 1.136 1.464 1.168 1.416C1.216 1.368 1.24 1.32 1.24 1.272C1.24 1.208 1.24 1.144 1.24 1.08C1.24 1.016 1.28 0.968 1.36 0.936C1.504 0.856 1.696 0.808 1.936 0.792C2.192 0.76 2.448 0.752 2.704 0.768C2.96 0.768 3.2 0.8 3.424 0.864C3.648 0.912 3.816 0.968 3.928 1.032C4.328 1.064 4.696 1.072 5.032 1.056C5.368 1.04 5.688 1.032 5.992 1.032C6.296 1.016 6.592 1.016 6.88 1.032C7.184 1.032 7.504 1.072 7.84 1.152C8.512 1.12 9.192 1.064 9.88 0.984C10.584 0.904 11.256 0.856 11.896 0.84C12.536 0.808 13.128 0.848 13.672 0.96C14.216 1.072 14.68 1.304 15.064 1.656ZM29.1968 1.656C29.1968 1.752 29.1488 1.84 29.0528 1.92C28.9568 1.984 28.9088 2.088 28.9088 2.232C28.5248 2.392 28.0928 2.496 27.6128 2.544C27.1488 2.576 26.6608 2.592 26.1488 2.592C25.6528 2.576 25.1408 2.552 24.6128 2.52C24.1008 2.488 23.6208 2.472 23.1728 2.472C22.6768 2.472 22.1568 2.48 21.6128 2.496C21.0688 2.496 20.5328 2.504 20.0048 2.52C19.4768 2.52 18.9728 2.528 18.4928 2.544C18.0288 2.544 17.6288 2.544 17.2928 2.544C16.6848 2.544 16.1888 2.424 15.8048 2.184C15.4368 1.944 15.1808 1.696 15.0368 1.44C15.1808 1.472 15.2688 1.464 15.3008 1.416C15.3488 1.368 15.3728 1.32 15.3728 1.272C15.3728 1.208 15.3728 1.144 15.3728 1.08C15.3728 1.016 15.4128 0.968 15.4928 0.936C15.6368 0.856 15.8288 0.808 16.0688 0.792C16.3248 0.76 16.5808 0.752 16.8368 0.768C17.0928 0.768 17.3328 0.8 17.5568 0.864C17.7808 0.912 17.9488 0.968 18.0608 1.032C18.4608 1.064 18.8288 1.072 19.1648 1.056C19.5008 1.04 19.8208 1.032 20.1248 1.032C20.4288 1.016 20.7248 1.016 21.0128 1.032C21.3168 1.032 21.6368 1.072 21.9728 1.152C22.6448 1.12 23.3248 1.064 24.0128 0.984C24.7168 0.904 25.3888 0.856 26.0288 0.84C26.6688 0.808 27.2608 0.848 27.8048 0.96C28.3488 1.072 28.8128 1.304 29.1968 1.656ZM43.3296 1.656C43.3296 1.752 43.2816 1.84 43.1856 1.92C43.0896 1.984 43.0416 2.088 43.0416 2.232C42.6576 2.392 42.2256 2.496 41.7456 2.544C41.2816 2.576 40.7936 2.592 40.2816 2.592C39.7856 2.576 39.2736 2.552 38.7456 2.52C38.2336 2.488 37.7536 2.472 37.3056 2.472C36.8096 2.472 36.2896 2.48 35.7456 2.496C35.2016 2.496 34.6656 2.504 34.1376 2.52C33.6096 2.52 33.1056 2.528 32.6256 2.544C32.1616 2.544 31.7616 2.544 31.4256 2.544C30.8176 2.544 30.3216 2.424 29.9376 2.184C29.5696 1.944 29.3136 1.696 29.1696 1.44C29.3136 1.472 29.4016 1.464 29.4336 1.416C29.4816 1.368 29.5056 1.32 29.5056 1.272C29.5056 1.208 29.5056 1.144 29.5056 1.08C29.5056 1.016 29.5456 0.968 29.6256 0.936C29.7696 0.856 29.9616 0.808 30.2016 0.792C30.4576 0.76 30.7136 0.752 30.9696 0.768C31.2256 0.768 31.4656 0.8 31.6896 0.864C31.9136 0.912 32.0816 0.968 32.1936 1.032C32.5936 1.064 32.9616 1.072 33.2976 1.056C33.6336 1.04 33.9536 1.032 34.2576 1.032C34.5616 1.016 34.8576 1.016 35.1456 1.032C35.4496 1.032 35.7696 1.072 36.1056 1.152C36.7776 1.12 37.4576 1.064 38.1456 0.984C38.8496 0.904 39.5216 0.856 40.1616 0.84C40.8016 0.808 41.3936 0.848 41.9376 0.96C42.4816 1.072 42.9456 1.304 43.3296 1.656ZM57.4624 1.656C57.4624 1.752 57.4144 1.84 57.3184 1.92C57.2224 1.984 57.1744 2.088 57.1744 2.232C56.7904 2.392 56.3584 2.496 55.8784 2.544C55.4144 2.576 54.9264 2.592 54.4144 2.592C53.9184 2.576 53.4064 2.552 52.8784 2.52C52.3664 2.488 51.8864 2.472 51.4384 2.472C50.9424 2.472 50.4224 2.48 49.8784 2.496C49.3344 2.496 48.7984 2.504 48.2704 2.52C47.7424 2.52 47.2384 2.528 46.7584 2.544C46.2944 2.544 45.8944 2.544 45.5584 2.544C44.9504 2.544 44.4544 2.424 44.0704 2.184C43.7024 1.944 43.4464 1.696 43.3024 1.44C43.4464 1.472 43.5344 1.464 43.5664 1.416C43.6144 1.368 43.6384 1.32 43.6384 1.272C43.6384 1.208 43.6384 1.144 43.6384 1.08C43.6384 1.016 43.6784 0.968 43.7584 0.936C43.9024 0.856 44.0944 0.808 44.3344 0.792C44.5904 0.76 44.8464 0.752 45.1024 0.768C45.3584 0.768 45.5984 0.8 45.8224 0.864C46.0464 0.912 46.2144 0.968 46.3264 1.032C46.7264 1.064 47.0944 1.072 47.4304 1.056C47.7664 1.04 48.0864 1.032 48.3904 1.032C48.6944 1.016 48.9904 1.016 49.2784 1.032C49.5824 1.032 49.9024 1.072 50.2384 1.152C50.9104 1.12 51.5904 1.064 52.2784 0.984C52.9824 0.904 53.6544 0.856 54.2944 0.84C54.9344 0.808 55.5264 0.848 56.0704 0.96C56.6144 1.072 57.0784 1.304 57.4624 1.656ZM71.5953 1.656C71.5953 1.752 71.5473 1.84 71.4513 1.92C71.3553 1.984 71.3073 2.088 71.3073 2.232C70.9233 2.392 70.4913 2.496 70.0113 2.544C69.5473 2.576 69.0593 2.592 68.5473 2.592C68.0513 2.576 67.5393 2.552 67.0113 2.52C66.4993 2.488 66.0193 2.472 65.5713 2.472C65.0753 2.472 64.5553 2.48 64.0113 2.496C63.4673 2.496 62.9313 2.504 62.4033 2.52C61.8753 2.52 61.3713 2.528 60.8913 2.544C60.4273 2.544 60.0273 2.544 59.6913 2.544C59.0833 2.544 58.5873 2.424 58.2033 2.184C57.8353 1.944 57.5793 1.696 57.4352 1.44C57.5793 1.472 57.6673 1.464 57.6993 1.416C57.7473 1.368 57.7713 1.32 57.7713 1.272C57.7713 1.208 57.7713 1.144 57.7713 1.08C57.7713 1.016 57.8113 0.968 57.8913 0.936C58.0353 0.856 58.2273 0.808 58.4673 0.792C58.7233 0.76 58.9793 0.752 59.2353 0.768C59.4913 0.768 59.7313 0.8 59.9553 0.864C60.1793 0.912 60.3473 0.968 60.4593 1.032C60.8593 1.064 61.2273 1.072 61.5633 1.056C61.8993 1.04 62.2193 1.032 62.5233 1.032C62.8273 1.016 63.1233 1.016 63.4113 1.032C63.7153 1.032 64.0353 1.072 64.3713 1.152C65.0433 1.12 65.7233 1.064 66.4113 0.984C67.1153 0.904 67.7873 0.856 68.4273 0.84C69.0673 0.808 69.6593 0.848 70.2032 0.96C70.7473 1.072 71.2113 1.304 71.5953 1.656ZM85.7281 1.656C85.7281 1.752 85.6801 1.84 85.5841 1.92C85.4881 1.984 85.4401 2.088 85.4401 2.232C85.0561 2.392 84.6241 2.496 84.1441 2.544C83.6801 2.576 83.1921 2.592 82.6801 2.592C82.1841 2.576 81.6721 2.552 81.1441 2.52C80.6321 2.488 80.1521 2.472 79.7041 2.472C79.2081 2.472 78.6881 2.48 78.1441 2.496C77.6001 2.496 77.0641 2.504 76.5361 2.52C76.0081 2.52 75.5041 2.528 75.0241 2.544C74.5601 2.544 74.1601 2.544 73.8241 2.544C73.2161 2.544 72.7201 2.424 72.3361 2.184C71.9681 1.944 71.7121 1.696 71.5681 1.44C71.7121 1.472 71.8001 1.464 71.8321 1.416C71.8801 1.368 71.9041 1.32 71.9041 1.272C71.9041 1.208 71.9041 1.144 71.9041 1.08C71.9041 1.016 71.9441 0.968 72.0241 0.936C72.1681 0.856 72.3601 0.808 72.6001 0.792C72.8561 0.76 73.1121 0.752 73.3681 0.768C73.6241 0.768 73.8641 0.8 74.0881 0.864C74.3121 0.912 74.4801 0.968 74.5921 1.032C74.9921 1.064 75.3601 1.072 75.6961 1.056C76.0321 1.04 76.3521 1.032 76.6561 1.032C76.9601 1.016 77.2561 1.016 77.5441 1.032C77.8481 1.032 78.1681 1.072 78.5041 1.152C79.1761 1.12 79.8561 1.064 80.5441 0.984C81.2481 0.904 81.9201 0.856 82.5601 0.84C83.2001 0.808 83.7921 0.848 84.3361 0.96C84.8801 1.072 85.3441 1.304 85.7281 1.656ZM99.8609 1.656C99.8609 1.752 99.8129 1.84 99.7169 1.92C99.6209 1.984 99.5729 2.088 99.5729 2.232C99.1889 2.392 98.7569 2.496 98.2769 2.544C97.8129 2.576 97.3249 2.592 96.8129 2.592C96.3169 2.576 95.8049 2.552 95.2769 2.52C94.7649 2.488 94.2849 2.472 93.8369 2.472C93.3409 2.472 92.8209 2.48 92.2769 2.496C91.7329 2.496 91.1969 2.504 90.6689 2.52C90.1409 2.52 89.6369 2.528 89.1569 2.544C88.6929 2.544 88.2929 2.544 87.9569 2.544C87.3489 2.544 86.8529 2.424 86.4689 2.184C86.1009 1.944 85.8449 1.696 85.7009 1.44C85.8449 1.472 85.9329 1.464 85.9649 1.416C86.0129 1.368 86.0369 1.32 86.0369 1.272C86.0369 1.208 86.0369 1.144 86.0369 1.08C86.0369 1.016 86.0769 0.968 86.1569 0.936C86.3009 0.856 86.4929 0.808 86.7329 0.792C86.9889 0.76 87.2449 0.752 87.5009 0.768C87.7569 0.768 87.9969 0.8 88.2209 0.864C88.4449 0.912 88.6129 0.968 88.7249 1.032C89.1249 1.064 89.4929 1.072 89.8289 1.056C90.1649 1.04 90.4849 1.032 90.7889 1.032C91.0929 1.016 91.3889 1.016 91.6769 1.032C91.9809 1.032 92.3009 1.072 92.6369 1.152C93.3089 1.12 93.9889 1.064 94.6769 0.984C95.3809 0.904 96.0529 0.856 96.6929 0.84C97.3329 0.808 97.9249 0.848 98.4689 0.96C99.0129 1.072 99.4769 1.304 99.8609 1.656ZM113.994 1.656C113.994 1.752 113.946 1.84 113.85 1.92C113.754 1.984 113.706 2.088 113.706 2.232C113.322 2.392 112.89 2.496 112.41 2.544C111.946 2.576 111.458 2.592 110.946 2.592C110.45 2.576 109.938 2.552 109.41 2.52C108.898 2.488 108.418 2.472 107.97 2.472C107.474 2.472 106.954 2.48 106.41 2.496C105.866 2.496 105.33 2.504 104.802 2.52C104.274 2.52 103.77 2.528 103.29 2.544C102.826 2.544 102.426 2.544 102.09 2.544C101.482 2.544 100.986 2.424 100.602 2.184C100.234 1.944 99.9777 1.696 99.8337 1.44C99.9777 1.472 100.066 1.464 100.098 1.416C100.146 1.368 100.17 1.32 100.17 1.272C100.17 1.208 100.17 1.144 100.17 1.08C100.17 1.016 100.21 0.968 100.29 0.936C100.434 0.856 100.626 0.808 100.866 0.792C101.122 0.76 101.378 0.752 101.634 0.768C101.89 0.768 102.13 0.8 102.354 0.864C102.578 0.912 102.746 0.968 102.858 1.032C103.258 1.064 103.626 1.072 103.962 1.056C104.298 1.04 104.618 1.032 104.922 1.032C105.226 1.016 105.522 1.016 105.81 1.032C106.114 1.032 106.434 1.072 106.77 1.152C107.442 1.12 108.122 1.064 108.81 0.984C109.514 0.904 110.186 0.856 110.826 0.84C111.466 0.808 112.058 0.848 112.602 0.96C113.146 1.072 113.61 1.304 113.994 1.656ZM128.127 1.656C128.127 1.752 128.079 1.84 127.983 1.92C127.887 1.984 127.839 2.088 127.839 2.232C127.455 2.392 127.023 2.496 126.543 2.544C126.079 2.576 125.591 2.592 125.079 2.592C124.583 2.576 124.071 2.552 123.543 2.52C123.031 2.488 122.551 2.472 122.103 2.472C121.607 2.472 121.087 2.48 120.543 2.496C119.999 2.496 119.463 2.504 118.935 2.52C118.407 2.52 117.903 2.528 117.423 2.544C116.959 2.544 116.559 2.544 116.223 2.544C115.615 2.544 115.119 2.424 114.735 2.184C114.367 1.944 114.111 1.696 113.966 1.44C114.111 1.472 114.199 1.464 114.231 1.416C114.279 1.368 114.303 1.32 114.303 1.272C114.303 1.208 114.303 1.144 114.303 1.08C114.303 1.016 114.343 0.968 114.423 0.936C114.567 0.856 114.759 0.808 114.999 0.792C115.255 0.76 115.511 0.752 115.767 0.768C116.023 0.768 116.263 0.8 116.487 0.864C116.711 0.912 116.879 0.968 116.991 1.032C117.391 1.064 117.759 1.072 118.095 1.056C118.431 1.04 118.751 1.032 119.055 1.032C119.359 1.016 119.655 1.016 119.943 1.032C120.247 1.032 120.567 1.072 120.903 1.152C121.575 1.12 122.255 1.064 122.943 0.984C123.647 0.904 124.319 0.856 124.959 0.84C125.599 0.808 126.191 0.848 126.734 0.96C127.279 1.072 127.743 1.304 128.127 1.656ZM142.259 1.656C142.259 1.752 142.211 1.84 142.115 1.92C142.019 1.984 141.971 2.088 141.971 2.232C141.587 2.392 141.155 2.496 140.675 2.544C140.211 2.576 139.723 2.592 139.211 2.592C138.715 2.576 138.203 2.552 137.675 2.52C137.163 2.488 136.683 2.472 136.235 2.472C135.739 2.472 135.219 2.48 134.675 2.496C134.131 2.496 133.595 2.504 133.067 2.52C132.539 2.52 132.035 2.528 131.555 2.544C131.091 2.544 130.691 2.544 130.355 2.544C129.747 2.544 129.251 2.424 128.867 2.184C128.499 1.944 128.243 1.696 128.099 1.44C128.243 1.472 128.331 1.464 128.363 1.416C128.411 1.368 128.435 1.32 128.435 1.272C128.435 1.208 128.435 1.144 128.435 1.08C128.435 1.016 128.475 0.968 128.555 0.936C128.699 0.856 128.891 0.808 129.131 0.792C129.387 0.76 129.643 0.752 129.899 0.768C130.155 0.768 130.395 0.8 130.619 0.864C130.843 0.912 131.011 0.968 131.123 1.032C131.523 1.064 131.891 1.072 132.227 1.056C132.563 1.04 132.883 1.032 133.187 1.032C133.491 1.016 133.787 1.016 134.075 1.032C134.379 1.032 134.699 1.072 135.035 1.152C135.707 1.12 136.387 1.064 137.075 0.984C137.779 0.904 138.451 0.856 139.091 0.84C139.731 0.808 140.323 0.848 140.867 0.96C141.411 1.072 141.875 1.304 142.259 1.656ZM156.392 1.656C156.392 1.752 156.344 1.84 156.248 1.92C156.152 1.984 156.104 2.088 156.104 2.232C155.72 2.392 155.288 2.496 154.808 2.544C154.344 2.576 153.856 2.592 153.344 2.592C152.848 2.576 152.336 2.552 151.808 2.52C151.296 2.488 150.816 2.472 150.368 2.472C149.872 2.472 149.352 2.48 148.808 2.496C148.264 2.496 147.728 2.504 147.2 2.52C146.672 2.52 146.168 2.528 145.688 2.544C145.224 2.544 144.824 2.544 144.488 2.544C143.88 2.544 143.384 2.424 143 2.184C142.632 1.944 142.376 1.696 142.232 1.44C142.376 1.472 142.464 1.464 142.496 1.416C142.544 1.368 142.568 1.32 142.568 1.272C142.568 1.208 142.568 1.144 142.568 1.08C142.568 1.016 142.608 0.968 142.688 0.936C142.832 0.856 143.024 0.808 143.264 0.792C143.52 0.76 143.776 0.752 144.032 0.768C144.288 0.768 144.528 0.8 144.752 0.864C144.976 0.912 145.144 0.968 145.256 1.032C145.656 1.064 146.024 1.072 146.36 1.056C146.696 1.04 147.016 1.032 147.32 1.032C147.624 1.016 147.92 1.016 148.208 1.032C148.512 1.032 148.832 1.072 149.168 1.152C149.84 1.12 150.52 1.064 151.208 0.984C151.912 0.904 152.584 0.856 153.224 0.84C153.864 0.808 154.456 0.848 155 0.96C155.544 1.072 156.008 1.304 156.392 1.656ZM170.525 1.656C170.525 1.752 170.477 1.84 170.381 1.92C170.285 1.984 170.237 2.088 170.237 2.232C169.853 2.392 169.421 2.496 168.941 2.544C168.477 2.576 167.989 2.592 167.477 2.592C166.981 2.576 166.469 2.552 165.941 2.52C165.429 2.488 164.949 2.472 164.501 2.472C164.005 2.472 163.485 2.48 162.941 2.496C162.397 2.496 161.861 2.504 161.333 2.52C160.805 2.52 160.301 2.528 159.821 2.544C159.357 2.544 158.957 2.544 158.621 2.544C158.013 2.544 157.517 2.424 157.133 2.184C156.765 1.944 156.509 1.696 156.365 1.44C156.509 1.472 156.597 1.464 156.629 1.416C156.677 1.368 156.701 1.32 156.701 1.272C156.701 1.208 156.701 1.144 156.701 1.08C156.701 1.016 156.741 0.968 156.821 0.936C156.965 0.856 157.157 0.808 157.397 0.792C157.653 0.76 157.909 0.752 158.165 0.768C158.421 0.768 158.661 0.8 158.885 0.864C159.109 0.912 159.277 0.968 159.389 1.032C159.789 1.064 160.157 1.072 160.493 1.056C160.829 1.04 161.149 1.032 161.453 1.032C161.757 1.016 162.053 1.016 162.341 1.032C162.645 1.032 162.965 1.072 163.301 1.152C163.973 1.12 164.653 1.064 165.341 0.984C166.045 0.904 166.717 0.856 167.357 0.84C167.997 0.808 168.589 0.848 169.133 0.96C169.677 1.072 170.141 1.304 170.525 1.656ZM184.658 1.656C184.658 1.752 184.61 1.84 184.514 1.92C184.418 1.984 184.37 2.088 184.37 2.232C183.986 2.392 183.554 2.496 183.074 2.544C182.61 2.576 182.122 2.592 181.61 2.592C181.114 2.576 180.602 2.552 180.074 2.52C179.562 2.488 179.082 2.472 178.634 2.472C178.138 2.472 177.618 2.48 177.074 2.496C176.53 2.496 175.994 2.504 175.466 2.52C174.938 2.52 174.434 2.528 173.954 2.544C173.49 2.544 173.09 2.544 172.754 2.544C172.146 2.544 171.65 2.424 171.266 2.184C170.898 1.944 170.642 1.696 170.498 1.44C170.642 1.472 170.73 1.464 170.762 1.416C170.81 1.368 170.834 1.32 170.834 1.272C170.834 1.208 170.834 1.144 170.834 1.08C170.834 1.016 170.874 0.968 170.954 0.936C171.098 0.856 171.29 0.808 171.53 0.792C171.786 0.76 172.042 0.752 172.298 0.768C172.554 0.768 172.794 0.8 173.018 0.864C173.242 0.912 173.41 0.968 173.522 1.032C173.922 1.064 174.29 1.072 174.626 1.056C174.962 1.04 175.282 1.032 175.586 1.032C175.89 1.016 176.186 1.016 176.474 1.032C176.778 1.032 177.098 1.072 177.434 1.152C178.106 1.12 178.786 1.064 179.474 0.984C180.178 0.904 180.85 0.856 181.49 0.84C182.13 0.808 182.722 0.848 183.266 0.96C183.81 1.072 184.274 1.304 184.658 1.656ZM198.791 1.656C198.791 1.752 198.743 1.84 198.647 1.92C198.551 1.984 198.503 2.088 198.503 2.232C198.119 2.392 197.687 2.496 197.207 2.544C196.743 2.576 196.255 2.592 195.743 2.592C195.247 2.576 194.735 2.552 194.207 2.52C193.695 2.488 193.215 2.472 192.767 2.472C192.271 2.472 191.751 2.48 191.207 2.496C190.663 2.496 190.127 2.504 189.599 2.52C189.071 2.52 188.567 2.528 188.087 2.544C187.623 2.544 187.223 2.544 186.887 2.544C186.279 2.544 185.783 2.424 185.399 2.184C185.031 1.944 184.775 1.696 184.631 1.44C184.775 1.472 184.863 1.464 184.895 1.416C184.943 1.368 184.967 1.32 184.967 1.272C184.967 1.208 184.967 1.144 184.967 1.08C184.967 1.016 185.007 0.968 185.087 0.936C185.231 0.856 185.423 0.808 185.663 0.792C185.919 0.76 186.175 0.752 186.431 0.768C186.687 0.768 186.927 0.8 187.151 0.864C187.375 0.912 187.543 0.968 187.655 1.032C188.055 1.064 188.423 1.072 188.759 1.056C189.095 1.04 189.415 1.032 189.719 1.032C190.023 1.016 190.319 1.016 190.607 1.032C190.911 1.032 191.231 1.072 191.567 1.152C192.239 1.12 192.919 1.064 193.607 0.984C194.311 0.904 194.983 0.856 195.623 0.84C196.263 0.808 196.855 0.848 197.399 0.96C197.943 1.072 198.407 1.304 198.791 1.656ZM212.923 1.656C212.923 1.752 212.875 1.84 212.779 1.92C212.683 1.984 212.635 2.088 212.635 2.232C212.251 2.392 211.819 2.496 211.339 2.544C210.875 2.576 210.387 2.592 209.875 2.592C209.379 2.576 208.867 2.552 208.339 2.52C207.827 2.488 207.347 2.472 206.899 2.472C206.403 2.472 205.883 2.48 205.339 2.496C204.795 2.496 204.259 2.504 203.731 2.52C203.203 2.52 202.699 2.528 202.219 2.544C201.755 2.544 201.355 2.544 201.019 2.544C200.411 2.544 199.915 2.424 199.531 2.184C199.163 1.944 198.907 1.696 198.763 1.44C198.907 1.472 198.995 1.464 199.027 1.416C199.075 1.368 199.099 1.32 199.099 1.272C199.099 1.208 199.099 1.144 199.099 1.08C199.099 1.016 199.139 0.968 199.219 0.936C199.363 0.856 199.555 0.808 199.795 0.792C200.051 0.76 200.307 0.752 200.563 0.768C200.819 0.768 201.059 0.8 201.283 0.864C201.507 0.912 201.675 0.968 201.787 1.032C202.187 1.064 202.555 1.072 202.891 1.056C203.227 1.04 203.547 1.032 203.851 1.032C204.155 1.016 204.451 1.016 204.739 1.032C205.043 1.032 205.363 1.072 205.699 1.152C206.371 1.12 207.051 1.064 207.739 0.984C208.443 0.904 209.115 0.856 209.755 0.84C210.395 0.808 210.987 0.848 211.531 0.96C212.075 1.072 212.539 1.304 212.923 1.656ZM227.056 1.656C227.056 1.752 227.008 1.84 226.912 1.92C226.816 1.984 226.768 2.088 226.768 2.232C226.384 2.392 225.952 2.496 225.472 2.544C225.008 2.576 224.52 2.592 224.008 2.592C223.512 2.576 223 2.552 222.472 2.52C221.96 2.488 221.48 2.472 221.032 2.472C220.536 2.472 220.016 2.48 219.472 2.496C218.928 2.496 218.392 2.504 217.864 2.52C217.336 2.52 216.832 2.528 216.352 2.544C215.888 2.544 215.488 2.544 215.152 2.544C214.544 2.544 214.048 2.424 213.664 2.184C213.296 1.944 213.04 1.696 212.896 1.44C213.04 1.472 213.128 1.464 213.16 1.416C213.208 1.368 213.232 1.32 213.232 1.272C213.232 1.208 213.232 1.144 213.232 1.08C213.232 1.016 213.272 0.968 213.352 0.936C213.496 0.856 213.688 0.808 213.928 0.792C214.184 0.76 214.44 0.752 214.696 0.768C214.952 0.768 215.192 0.8 215.416 0.864C215.64 0.912 215.808 0.968 215.92 1.032C216.32 1.064 216.688 1.072 217.024 1.056C217.36 1.04 217.68 1.032 217.984 1.032C218.288 1.016 218.584 1.016 218.872 1.032C219.176 1.032 219.496 1.072 219.832 1.152C220.504 1.12 221.184 1.064 221.872 0.984C222.576 0.904 223.248 0.856 223.888 0.84C224.528 0.808 225.12 0.848 225.664 0.96C226.208 1.072 226.672 1.304 227.056 1.656ZM241.189 1.656C241.189 1.752 241.141 1.84 241.045 1.92C240.949 1.984 240.901 2.088 240.901 2.232C240.517 2.392 240.085 2.496 239.605 2.544C239.141 2.576 238.653 2.592 238.141 2.592C237.645 2.576 237.133 2.552 236.605 2.52C236.093 2.488 235.613 2.472 235.165 2.472C234.669 2.472 234.149 2.48 233.605 2.496C233.061 2.496 232.525 2.504 231.997 2.52C231.469 2.52 230.965 2.528 230.485 2.544C230.021 2.544 229.621 2.544 229.285 2.544C228.677 2.544 228.181 2.424 227.797 2.184C227.429 1.944 227.173 1.696 227.029 1.44C227.173 1.472 227.261 1.464 227.293 1.416C227.341 1.368 227.365 1.32 227.365 1.272C227.365 1.208 227.365 1.144 227.365 1.08C227.365 1.016 227.405 0.968 227.485 0.936C227.629 0.856 227.821 0.808 228.061 0.792C228.317 0.76 228.573 0.752 228.829 0.768C229.085 0.768 229.325 0.8 229.549 0.864C229.773 0.912 229.941 0.968 230.053 1.032C230.453 1.064 230.821 1.072 231.157 1.056C231.493 1.04 231.813 1.032 232.117 1.032C232.421 1.016 232.717 1.016 233.005 1.032C233.309 1.032 233.629 1.072 233.965 1.152C234.637 1.12 235.317 1.064 236.005 0.984C236.709 0.904 237.381 0.856 238.021 0.84C238.661 0.808 239.253 0.848 239.797 0.96C240.341 1.072 240.805 1.304 241.189 1.656ZM255.322 1.656C255.322 1.752 255.274 1.84 255.178 1.92C255.082 1.984 255.034 2.088 255.034 2.232C254.65 2.392 254.218 2.496 253.738 2.544C253.274 2.576 252.786 2.592 252.274 2.592C251.778 2.576 251.266 2.552 250.738 2.52C250.226 2.488 249.746 2.472 249.298 2.472C248.802 2.472 248.282 2.48 247.738 2.496C247.194 2.496 246.658 2.504 246.13 2.52C245.602 2.52 245.098 2.528 244.618 2.544C244.154 2.544 243.754 2.544 243.418 2.544C242.81 2.544 242.314 2.424 241.93 2.184C241.562 1.944 241.306 1.696 241.162 1.44C241.306 1.472 241.394 1.464 241.426 1.416C241.474 1.368 241.498 1.32 241.498 1.272C241.498 1.208 241.498 1.144 241.498 1.08C241.498 1.016 241.538 0.968 241.618 0.936C241.762 0.856 241.954 0.808 242.194 0.792C242.45 0.76 242.706 0.752 242.962 0.768C243.218 0.768 243.458 0.8 243.682 0.864C243.906 0.912 244.074 0.968 244.186 1.032C244.586 1.064 244.954 1.072 245.29 1.056C245.626 1.04 245.946 1.032 246.25 1.032C246.554 1.016 246.85 1.016 247.138 1.032C247.442 1.032 247.762 1.072 248.098 1.152C248.77 1.12 249.45 1.064 250.138 0.984C250.842 0.904 251.514 0.856 252.154 0.84C252.794 0.808 253.386 0.848 253.93 0.96C254.474 1.072 254.938 1.304 255.322 1.656ZM269.455 1.656C269.455 1.752 269.407 1.84 269.311 1.92C269.215 1.984 269.167 2.088 269.167 2.232C268.783 2.392 268.351 2.496 267.871 2.544C267.407 2.576 266.919 2.592 266.407 2.592C265.911 2.576 265.399 2.552 264.871 2.52C264.359 2.488 263.879 2.472 263.431 2.472C262.935 2.472 262.415 2.48 261.871 2.496C261.327 2.496 260.791 2.504 260.263 2.52C259.735 2.52 259.231 2.528 258.751 2.544C258.287 2.544 257.887 2.544 257.551 2.544C256.943 2.544 256.447 2.424 256.063 2.184C255.695 1.944 255.439 1.696 255.295 1.44C255.439 1.472 255.527 1.464 255.559 1.416C255.607 1.368 255.631 1.32 255.631 1.272C255.631 1.208 255.631 1.144 255.631 1.08C255.631 1.016 255.671 0.968 255.751 0.936C255.895 0.856 256.087 0.808 256.327 0.792C256.583 0.76 256.839 0.752 257.095 0.768C257.351 0.768 257.591 0.8 257.815 0.864C258.039 0.912 258.207 0.968 258.319 1.032C258.719 1.064 259.087 1.072 259.423 1.056C259.759 1.04 260.079 1.032 260.383 1.032C260.687 1.016 260.983 1.016 261.271 1.032C261.575 1.032 261.895 1.072 262.231 1.152C262.903 1.12 263.583 1.064 264.271 0.984C264.975 0.904 265.647 0.856 266.287 0.84C266.927 0.808 267.519 0.848 268.063 0.96C268.607 1.072 269.071 1.304 269.455 1.656ZM283.587 1.656C283.587 1.752 283.539 1.84 283.443 1.92C283.347 1.984 283.299 2.088 283.299 2.232C282.915 2.392 282.483 2.496 282.003 2.544C281.539 2.576 281.051 2.592 280.539 2.592C280.043 2.576 279.531 2.552 279.003 2.52C278.491 2.488 278.011 2.472 277.563 2.472C277.067 2.472 276.547 2.48 276.003 2.496C275.459 2.496 274.923 2.504 274.395 2.52C273.867 2.52 273.363 2.528 272.883 2.544C272.419 2.544 272.019 2.544 271.683 2.544C271.075 2.544 270.579 2.424 270.195 2.184C269.827 1.944 269.571 1.696 269.427 1.44C269.571 1.472 269.659 1.464 269.691 1.416C269.739 1.368 269.763 1.32 269.763 1.272C269.763 1.208 269.763 1.144 269.763 1.08C269.763 1.016 269.803 0.968 269.883 0.936C270.027 0.856 270.219 0.808 270.459 0.792C270.715 0.76 270.971 0.752 271.227 0.768C271.483 0.768 271.723 0.8 271.947 0.864C272.171 0.912 272.339 0.968 272.451 1.032C272.851 1.064 273.219 1.072 273.555 1.056C273.891 1.04 274.211 1.032 274.515 1.032C274.819 1.016 275.115 1.016 275.403 1.032C275.707 1.032 276.027 1.072 276.363 1.152C277.035 1.12 277.715 1.064 278.403 0.984C279.107 0.904 279.779 0.856 280.419 0.84C281.059 0.808 281.651 0.848 282.195 0.96C282.739 1.072 283.203 1.304 283.587 1.656ZM297.72 1.656C297.72 1.752 297.672 1.84 297.576 1.92C297.48 1.984 297.432 2.088 297.432 2.232C297.048 2.392 296.616 2.496 296.136 2.544C295.672 2.576 295.184 2.592 294.672 2.592C294.176 2.576 293.664 2.552 293.136 2.52C292.624 2.488 292.144 2.472 291.696 2.472C291.2 2.472 290.68 2.48 290.136 2.496C289.592 2.496 289.056 2.504 288.528 2.52C288 2.52 287.496 2.528 287.016 2.544C286.552 2.544 286.152 2.544 285.816 2.544C285.208 2.544 284.712 2.424 284.328 2.184C283.96 1.944 283.704 1.696 283.56 1.44C283.704 1.472 283.792 1.464 283.824 1.416C283.872 1.368 283.896 1.32 283.896 1.272C283.896 1.208 283.896 1.144 283.896 1.08C283.896 1.016 283.936 0.968 284.016 0.936C284.16 0.856 284.352 0.808 284.592 0.792C284.848 0.76 285.104 0.752 285.36 0.768C285.616 0.768 285.856 0.8 286.08 0.864C286.304 0.912 286.472 0.968 286.584 1.032C286.984 1.064 287.352 1.072 287.688 1.056C288.024 1.04 288.344 1.032 288.648 1.032C288.952 1.016 289.248 1.016 289.536 1.032C289.84 1.032 290.16 1.072 290.496 1.152C291.168 1.12 291.848 1.064 292.536 0.984C293.24 0.904 293.912 0.856 294.552 0.84C295.192 0.808 295.784 0.848 296.328 0.96C296.872 1.072 297.336 1.304 297.72 1.656ZM311.853 1.656C311.853 1.752 311.805 1.84 311.709 1.92C311.613 1.984 311.565 2.088 311.565 2.232C311.181 2.392 310.749 2.496 310.269 2.544C309.805 2.576 309.317 2.592 308.805 2.592C308.309 2.576 307.797 2.552 307.269 2.52C306.757 2.488 306.277 2.472 305.829 2.472C305.333 2.472 304.813 2.48 304.269 2.496C303.725 2.496 303.189 2.504 302.661 2.52C302.133 2.52 301.629 2.528 301.149 2.544C300.685 2.544 300.285 2.544 299.949 2.544C299.341 2.544 298.845 2.424 298.461 2.184C298.093 1.944 297.837 1.696 297.693 1.44C297.837 1.472 297.925 1.464 297.957 1.416C298.005 1.368 298.029 1.32 298.029 1.272C298.029 1.208 298.029 1.144 298.029 1.08C298.029 1.016 298.069 0.968 298.149 0.936C298.293 0.856 298.485 0.808 298.725 0.792C298.981 0.76 299.237 0.752 299.493 0.768C299.749 0.768 299.989 0.8 300.213 0.864C300.437 0.912 300.605 0.968 300.717 1.032C301.117 1.064 301.485 1.072 301.821 1.056C302.157 1.04 302.477 1.032 302.781 1.032C303.085 1.016 303.381 1.016 303.669 1.032C303.973 1.032 304.293 1.072 304.629 1.152C305.301 1.12 305.981 1.064 306.669 0.984C307.373 0.904 308.045 0.856 308.685 0.84C309.325 0.808 309.917 0.848 310.461 0.96C311.005 1.072 311.469 1.304 311.853 1.656ZM325.986 1.656C325.986 1.752 325.938 1.84 325.842 1.92C325.746 1.984 325.698 2.088 325.698 2.232C325.314 2.392 324.882 2.496 324.402 2.544C323.938 2.576 323.45 2.592 322.938 2.592C322.442 2.576 321.93 2.552 321.402 2.52C320.89 2.488 320.41 2.472 319.962 2.472C319.466 2.472 318.946 2.48 318.402 2.496C317.858 2.496 317.322 2.504 316.794 2.52C316.266 2.52 315.762 2.528 315.282 2.544C314.818 2.544 314.418 2.544 314.082 2.544C313.474 2.544 312.978 2.424 312.594 2.184C312.226 1.944 311.97 1.696 311.826 1.44C311.97 1.472 312.058 1.464 312.09 1.416C312.138 1.368 312.162 1.32 312.162 1.272C312.162 1.208 312.162 1.144 312.162 1.08C312.162 1.016 312.202 0.968 312.282 0.936C312.426 0.856 312.618 0.808 312.858 0.792C313.114 0.76 313.37 0.752 313.626 0.768C313.882 0.768 314.122 0.8 314.346 0.864C314.57 0.912 314.738 0.968 314.85 1.032C315.25 1.064 315.618 1.072 315.954 1.056C316.29 1.04 316.61 1.032 316.914 1.032C317.218 1.016 317.514 1.016 317.802 1.032C318.106 1.032 318.426 1.072 318.762 1.152C319.434 1.12 320.114 1.064 320.802 0.984C321.506 0.904 322.178 0.856 322.818 0.84C323.458 0.808 324.05 0.848 324.594 0.96C325.138 1.072 325.602 1.304 325.986 1.656ZM340.119 1.656C340.119 1.752 340.071 1.84 339.975 1.92C339.879 1.984 339.831 2.088 339.831 2.232C339.447 2.392 339.015 2.496 338.535 2.544C338.071 2.576 337.583 2.592 337.071 2.592C336.575 2.576 336.063 2.552 335.535 2.52C335.023 2.488 334.543 2.472 334.095 2.472C333.599 2.472 333.079 2.48 332.535 2.496C331.991 2.496 331.455 2.504 330.927 2.52C330.399 2.52 329.895 2.528 329.415 2.544C328.951 2.544 328.551 2.544 328.215 2.544C327.607 2.544 327.111 2.424 326.727 2.184C326.359 1.944 326.103 1.696 325.959 1.44C326.103 1.472 326.191 1.464 326.223 1.416C326.271 1.368 326.295 1.32 326.295 1.272C326.295 1.208 326.295 1.144 326.295 1.08C326.295 1.016 326.335 0.968 326.415 0.936C326.559 0.856 326.751 0.808 326.991 0.792C327.247 0.76 327.503 0.752 327.759 0.768C328.015 0.768 328.255 0.8 328.479 0.864C328.703 0.912 328.871 0.968 328.983 1.032C329.383 1.064 329.751 1.072 330.087 1.056C330.423 1.04 330.743 1.032 331.047 1.032C331.351 1.016 331.647 1.016 331.935 1.032C332.239 1.032 332.559 1.072 332.895 1.152C333.567 1.12 334.247 1.064 334.935 0.984C335.639 0.904 336.311 0.856 336.951 0.84C337.591 0.808 338.183 0.848 338.727 0.96C339.271 1.072 339.735 1.304 340.119 1.656Z" fill="#1C1C1C"/>
</svg>
